:SAMPLES-PER-SECOND 30
:FRAME-RANGE 1-2091
:FULLY-SPECIFIED
:DEGREES
1961
root  -6.87679 37.9241 37.7483 -6.45905 38.7355 -8.40683
RightUpLeg  -19.764 0.86538 4.57713
RightLeg  23.2816 1.18352 0.147015
RightFoot  -3.28577 -0.496484 6.72425
RightToes  5.82063e-011 0 -3.6325e-017
Spine  7.94894 -3.38131 10.6996
Spine1  0.945992 -2.96888 3.08445
HEad  -0.661549 -44.1577 3.77333
LeftShoulder1  2.02741 -2.35617 -28.5279
LeftArm  13.1136 -3.28823 -37.6126
LeftForeArm  7.90796 -14.6529 -11.3169
LeftHand  0.202812 -1.25902 -3.43885
RightShoulder  6.74633 19.3728 23.1814
RightArm  -54.986 28.697 -2.656
RightForeArm  40.8037 16.2637 2.74384
RightHand  -0.0989109 -0.680178 -2.36826
LeftUpLeg  -13.6154 25.0762 3.79186
LeftLeg  61.2028 -0.785442 -0.974574
LeftFoot  7.04197 2.00231 -12.5997
LeftToes  -6.27584e-011 -2.25241e-010 2.80627e-011
1962
root  -6.39989 38.1378 38.4124 -6.43083 40.2838 -7.80101
RightUpLeg  -17.6101 -0.695936 3.93384
RightLeg  22.7782 1.28494 0.169697
RightFoot  -4.65778 -0.416681 6.58442
RightToes  5.82063e-011 0 -3.6325e-017
Spine  7.78038 -3.23913 10.5739
Spine1  1.34441 -2.76262 2.66004
HEad  0.0805793 -45.3399 4.03249
LeftShoulder1  1.99271 -2.2135 -28.7889
LeftArm  9.51904 -1.05501 -33.9427
LeftForeArm  8.7865 -13.1546 -12.2852
LeftHand  0.198131 -0.975902 -3.53655
RightShoulder  6.95458 20.1228 23.1096
RightArm  -57.6781 28.9496 -2.90078
RightForeArm  41.353 19.002 2.61205
RightHand  -0.142777 -0.714633 -3.48039
LeftUpLeg  -17.8987 27.9419 4.20305
LeftLeg  65.544 0.637223 2.21753
LeftFoot  4.84749 1.1842 -8.52333
LeftToes  -6.27584e-011 -2.25241e-010 2.80627e-011
1963
root  -5.87738 38.4066 39.0575 -6.2317 41.8074 -6.71089
RightUpLeg  -14.917 -2.50168 2.80107
RightLeg  21.5897 1.64612 0.367691
RightFoot  -5.6476 -0.357164 6.40137
RightToes  5.82063e-011 0 -3.6325e-017
Spine  7.63895 -3.1517 9.99226
Spine1  1.65748 -2.62692 2.06091
HEad  1.71184 -46.782 3.33103
LeftShoulder1  1.93567 -2.05109 -28.7793
LeftArm  4.69867 1.09659 -30.7772
LeftForeArm  11.5133 -10.5246 -13.6295
LeftHand  0.142693 -0.271732 -2.91854
RightShoulder  7.23232 20.3684 24.0119
RightArm  -56.3158 28.7936 -2.23571
RightForeArm  41.3008 21.6587 2.78101
RightHand  -0.149656 -0.648284 -3.60948
LeftUpLeg  -21.2425 30.1587 3.87406
LeftLeg  66.368 1.22165 3.77254
LeftFoot  3.71588 0.861501 -6.68531
LeftToes  -6.27584e-011 -2.25241e-010 2.80627e-011
1964
root  -5.30244 38.6916 39.6908 -5.68575 43.0256 -5.41443
RightUpLeg  -12.009 -3.81932 1.43852
RightLeg  19.6846 1.95881 0.481047
RightFoot  -6.32269 -0.328623 6.50858
RightToes  5.82063e-011 0 -3.6325e-017
Spine  7.43889 -2.97112 9.4109
Spine1  1.5032 -2.36238 1.03619
HEad  3.95016 -48.0829 2.15947
LeftShoulder1  1.85033 -1.80709 -28.7707
LeftArm  0.951681 3.61855 -27.9825
LeftForeArm  12.7372 -8.69726 -14.3256
LeftHand  0.124816 -0.00397837 -2.70986
RightShoulder  7.83596 21.2 25.4862
RightArm  -52.1809 26.1746 -0.73919
RightForeArm  40.0081 24.7779 3.22349
RightHand  -0.149164 -0.82693 -3.71614
LeftUpLeg  -23.94 32.1195 2.97516
LeftLeg  64.2168 0.993255 2.89156
LeftFoot  1.16286 0.702697 -6.47527
LeftToes  -6.27584e-011 -2.25241e-010 2.80627e-011
1965
root  -4.71457 38.9661 40.2952 -5.02942 44.2434 -4.39865
RightUpLeg  -9.16714 -4.92344 0.200342
RightLeg  17.2936 1.93548 0.670582
RightFoot  -6.7325 -0.308841 6.52795
RightToes  5.82063e-011 0 -3.6325e-017
Spine  6.90732 -2.57745 8.50933
Spine1  1.41668 -2.07263 0.58997
HEad  5.73842 -48.8522 1.04047
LeftShoulder1  1.79015 -1.63394 -28.7717
LeftArm  -0.411857 6.12815 -25.8598
LeftForeArm  11.5471 -8.13505 -14.5512
LeftHand  0.12607 0.309889 -2.94912
RightShoulder  8.01264 20.2239 27.6333
RightArm  -46.5632 24.6746 1.10881
RightForeArm  39.1791 26.2949 3.57813
RightHand  -0.138586 -0.886233 -3.48243
LeftUpLeg  -26.1856 33.3295 1.61169
LeftLeg  59.4398 0.517257 1.49541
LeftFoot  -0.865348 0.509577 -5.50048
LeftToes  -6.27584e-011 -2.25241e-010 2.80627e-011
1966
root  -4.09456 39.1997 40.8856 -4.52451 45.7702 -3.71669
RightUpLeg  -6.16384 -5.49033 -0.735225
RightLeg  14.4519 1.22037 0.521856
RightFoot  -6.96553 -0.308737 6.83113
RightToes  5.82063e-011 0 -3.6325e-017
Spine  6.14465 -2.37361 7.4546
Spine1  1.60786 -2.06917 0.498326
HEad  7.00203 -48.8967 0.259321
LeftShoulder1  1.68628 -1.33045 -28.8079
LeftArm  0.707238 8.65592 -24.2909
LeftForeArm  9.3853 -8.54847 -14.5428
LeftHand  0.135385 0.516738 -3.32835
RightShoulder  8.18192 19.1705 30.0273
RightArm  -39.4752 22.704 2.70294
RightForeArm  36.9217 26.2233 3.67532
RightHand  -0.127439 -1.21764 -3.40101
LeftUpLeg  -27.6267 33.9938 0.0678219
LeftLeg  52.3706 1.14076 2.04523
LeftFoot  -2.42688 0.349837 -4.30062
LeftToes  -6.27584e-011 -2.25241e-010 2.80627e-011
1967
root  -3.51139 39.4346 41.4075 -3.91399 47.238 -3.04938
RightUpLeg  -3.01271 -5.78518 -1.59823
RightLeg  10.855 0.161064 0.379218
RightFoot  -6.64888 -0.34434 7.28865
RightToes  5.82063e-011 0 -3.6325e-017
Spine  5.76847 -2.08307 6.1461
Spine1  1.42095 -1.94702 0.377008
HEad  7.7011 -48.4193 -0.0896618
LeftShoulder1  1.62544 -1.15724 -28.7968
LeftArm  1.6504 10.8581 -23.2448
LeftForeArm  7.94603 -8.62298 -14.6491
LeftHand  0.175437 0.476016 -4.25036
RightShoulder  8.09125 17.6653 32.2163
RightArm  -31.177 20.3272 4.44027
RightForeArm  34.1743 24.4439 3.44225
RightHand  -0.110483 -1.10443 -2.86166
LeftUpLeg  -27.861 35.3842 -1.90685
LeftLeg  42.7421 3.05683 3.40736
LeftFoot  -3.68259 0.220623 -2.96558
LeftToes  -6.27584e-011 -2.25241e-010 2.80627e-011
1968
root  -2.92171 39.6639 41.8757 -3.52126 48.9236 -2.35487
RightUpLeg  0.725031 -5.97649 -2.47984
RightLeg  6.57908 -1.10615 0.293164
RightFoot  -5.95625 -0.407658 7.7929
RightToes  5.82063e-011 0 -3.6325e-017
Spine  5.44735 -1.93577 4.74056
Spine1  1.80977 -1.84883 0.0129437
HEad  7.77757 -47.5753 0.283736
LeftShoulder1  1.57395 -1.01801 -28.7287
LeftArm  1.98878 12.5852 -22.7788
LeftForeArm  7.51485 -8.36303 -14.8286
LeftHand  0.213292 0.270724 -4.91654
RightShoulder  7.68881 15.7671 33.9214
RightArm  -22.8105 17.7431 6.27419
RightForeArm  32.9382 20.5275 3.85302
RightHand  -0.105159 -1.08632 -2.70688
LeftUpLeg  -26.405 38.5338 -4.35109
LeftLeg  30.8731 4.50555 3.24483
LeftFoot  -3.87895 0.200521 -2.71748
LeftToes  -6.27584e-011 -2.25241e-010 2.80627e-011
1969
root  -2.31086 39.7883 42.3193 -3.40019 50.5254 -2.23969
RightUpLeg  3.52242 -5.70404 -2.70814
RightLeg  3.79439 -2.89107 0.0894808
RightFoot  -5.85138 -0.439223 8.31421
RightToes  5.82063e-011 0 -3.6325e-017
Spine  4.95619 -1.71043 3.51959
Spine1  2.32479 -1.68205 -0.0311321
HEad  7.93601 -46.7088 0.420262
LeftShoulder1  1.52185 -0.872408 -28.6939
LeftArm  2.09128 13.8622 -22.8081
LeftForeArm  7.29376 -7.85337 -15.101
LeftHand  0.237074 0.259635 -5.44661
RightShoulder  7.32881 13.9835 35.9292
RightArm  -18.7079 14.6727 6.57706
RightForeArm  36.7121 14.6193 6.62723
RightHand  -0.111349 -1.36814 -3.03721
LeftUpLeg  -25.076 43.5165 -7.66589
LeftLeg  18.8655 5.19528 2.29811
LeftFoot  -3.48715 0.183756 -2.37484
LeftToes  -6.27584e-011 -2.25241e-010 2.80627e-011
1970
root  -1.59781 39.752 42.7469 -3.82204 52.4618 -2.82445
RightUpLeg  5.31791 -5.83758 -2.82144
RightLeg  3.46796 -4.46011 0.33648
RightFoot  -7.03468 -0.376245 8.71475
RightToes  5.82063e-011 0 -3.6325e-017
Spine  4.47252 -1.62035 2.84233
Spine1  2.62485 -1.64305 0.180901
HEad  8.14819 -46.024 0.368696
LeftShoulder1  1.48346 -0.777 -28.5681
LeftArm  1.70908 15.0507 -23.3872
LeftForeArm  7.47735 -7.09271 -15.4162
LeftHand  0.249881 0.417471 -5.9446
RightShoulder  6.74204 12.1283 37.1397
RightArm  -17.0233 10.6886 6.51998
RightForeArm  44.4149 7.38277 9.22653
RightHand  -0.140834 -0.874161 -3.53299
LeftUpLeg  -16.7697 27.9321 0.29587
LeftLeg  8.44288 28.1709 -3.70047
LeftFoot  -2.63903 0.139692 -1.62737
LeftToes  -6.27584e-011 -2.25241e-010 2.80627e-011
1971
root  -0.760952 39.5998 43.1566 -4.86032 55.0239 -3.9189
RightUpLeg  6.91966 -6.24097 -2.89189
RightLeg  4.51329 -6.26516 0.643426
RightFoot  -9.01111 -0.251086 9.30773
RightToes  5.82063e-011 0 -3.6325e-017
Spine  4.03433 -1.80226 2.35357
Spine1  2.81435 -1.95845 0.752477
HEad  8.51805 -45.3717 0.0212949
LeftShoulder1  1.43066 -0.645114 -28.3916
LeftArm  0.754896 16.1149 -24.3061
LeftForeArm  8.10575 -6.12696 -15.7165
LeftHand  0.271438 0.395769 -6.42028
RightShoulder  5.82741 9.95446 37.3244
RightArm  -11.6094 6.12784 6.51218
RightForeArm  47.3792 0.998324 10.7784
RightHand  -0.164361 -1.14257 -4.37086
LeftUpLeg  -12.6226 14.7176 3.24713
LeftLeg  -1.22947 45.2909 -10.3008
LeftFoot  -2.012 0.076882 -0.793765
LeftToes  -6.27584e-011 -2.25241e-010 2.80627e-011
